<svg width="27" height="24" viewBox="0 0 27 24" fill="none" xmlns="http://www.w3.org/2000/svg">
<rect width="27" height="24" fill="#1E1E1E"/>
<path d="M5.25 0V18.75H27V21H23.8594C23.9531 21.2344 24 21.4688 24 21.75C24 23.0156 23.0156 24 21.75 24C20.5312 24 19.5 23.0156 19.5 21.75C19.5 21.4688 19.5469 21.2344 19.6406 21H10.3594C10.4531 21.2344 10.5 21.4688 10.5 21.75C10.5 23.0156 9.51562 24 8.25 24C7.03125 24 6 23.0156 6 21.75C6 21.4688 6.04688 21.2344 6.14062 21H3V2.25H0V0H5.25ZM9.75 5.25V14.25H21.75V5.25H9.75ZM7.5 3H24V16.5H7.5V3Z" fill="#343434"/>
</svg>
