<svg width="26" height="24" viewBox="0 0 26 24" fill="none" xmlns="http://www.w3.org/2000/svg">
<rect width="26" height="24" fill="#1E1E1E"/>
<path d="M-489.25 -1564C-489.25 -1565.1 -488.355 -1566 -487.25 -1566H444.75C445.855 -1566 446.75 -1565.1 446.75 -1564V216C446.75 217.105 445.855 218 444.75 218H-487.25C-488.355 218 -489.25 217.105 -489.25 216V-1564Z" fill="white"/>
<path d="M-487.25 -1566V-1565H444.75V-1566V-1567H-487.25V-1566ZM446.75 -1564H445.75V216H446.75H447.75V-1564H446.75ZM444.75 218V217H-487.25V218V219H444.75V218ZM-489.25 216H-488.25V-1564H-489.25H-490.25V216H-489.25ZM-487.25 218V217C-487.802 217 -488.25 216.552 -488.25 216H-489.25H-490.25C-490.25 217.657 -488.907 219 -487.25 219V218ZM446.75 216H445.75C445.75 216.552 445.302 217 444.75 217V218V219C446.407 219 447.75 217.657 447.75 216H446.75ZM444.75 -1566V-1565C445.302 -1565 445.75 -1564.55 445.75 -1564H446.75H447.75C447.75 -1565.66 446.407 -1567 444.75 -1567V-1566ZM-487.25 -1566V-1567C-488.907 -1567 -490.25 -1565.66 -490.25 -1564H-489.25H-488.25C-488.25 -1564.55 -487.802 -1565 -487.25 -1565V-1566Z" fill="white" fill-opacity="0.1"/>
<path d="M2.25 9.51562V9.75H23.25V9.51562L20.3438 3.75H5.15625L2.25 9.51562ZM0 12V9L3.75 1.5H21.75L25.5 9V12H23.25V22.5H21V12H15.75V22.5H2.25V12H0ZM4.5 12V15.75H13.5V12H4.5ZM4.5 18V20.25H13.5V18H4.5Z" fill="#343434"/>
</svg>
